<svg width="40" height="40" viewBox="0 0 40 40" fill="none" xmlns="http://www.w3.org/2000/svg">
<path d="M16.1183 25.7333L36.5433 5.64C36.7366 6.32 36.7033 7.05167 36.4416 7.72334L26.025 34.5233C25.3666 36.2167 23.4716 37.0867 21.7916 36.465C21.3823 36.3139 21.0086 36.0799 20.694 35.7776C20.3794 35.4754 20.1306 35.1113 19.9633 34.7083L16.6616 26.7583C16.5116 26.3983 16.3283 26.0533 16.1183 25.73V25.7333ZM13.7683 23.5867C13.5961 23.4964 13.4198 23.4141 13.24 23.34L5.28997 20.0383C3.64164 19.35 2.88664 17.4417 3.60831 15.775C3.78554 15.3667 4.0419 14.9976 4.36257 14.6889C4.68325 14.3803 5.06189 14.1382 5.47664 13.9767L32.2766 3.56C33.0433 3.26167 33.8433 3.26834 34.5516 3.51834L13.7683 23.5867Z" fill="white"/>
</svg>
