<svg width="40" height="40" viewBox="0 0 40 40" fill="none" xmlns="http://www.w3.org/2000/svg">
<g clip-path="url(#clip0_259_4734)">
<path fill-rule="evenodd" clip-rule="evenodd" d="M25 3.33333C26.5588 3.33318 28.0864 3.77025 29.4093 4.59489C30.7321 5.41953 31.7971 6.59867 32.4833 7.99833L32.64 8.33333H35C35.2823 8.33332 35.5601 8.40503 35.8071 8.54174C36.0541 8.67844 36.2624 8.87567 36.4123 9.1149C36.5623 9.35414 36.649 9.62754 36.6643 9.90946C36.6796 10.1914 36.6231 10.4726 36.5 10.7267L36.3867 10.925L33.8 14.8033C33.6017 15.1015 33.5047 15.4557 33.5233 15.8133L33.5467 16.0267L33.7817 17.3167C35.43 26.38 28.6017 34.735 19.46 34.9933L19.0233 35H5.00001C4.71767 35 4.43996 34.9283 4.19292 34.7916C3.94589 34.6549 3.73763 34.4577 3.58769 34.2184C3.43776 33.9792 3.35105 33.7058 3.33571 33.4239C3.32038 33.142 3.37691 32.8608 3.50001 32.6067L3.61334 32.4083L16.0217 13.795C16.4423 13.1649 16.6667 12.4243 16.6667 11.6667C16.6667 9.45653 17.5446 7.33691 19.1075 5.77411C20.6703 4.21131 22.7899 3.33333 25 3.33333ZM19.1667 18.3333C18.715 18.3333 18.0617 18.45 17.44 18.6817C16.815 18.915 16.47 19.1733 16.35 19.3117L10.71 27.7733C12.3733 27.295 14.1517 26.7683 15.815 26.1167C17.5933 25.4217 19.1117 24.63 20.1633 23.7067C21.1833 22.8117 21.6667 21.8867 21.6667 20.8333C21.6667 20.1703 21.4033 19.5344 20.9344 19.0656C20.4656 18.5967 19.8297 18.3333 19.1667 18.3333ZM25 10C24.558 10 24.1341 10.1756 23.8215 10.4882C23.5089 10.8007 23.3333 11.2246 23.3333 11.6667C23.3333 12.1087 23.5089 12.5326 23.8215 12.8452C24.1341 13.1577 24.558 13.3333 25 13.3333C25.442 13.3333 25.866 13.1577 26.1785 12.8452C26.4911 12.5326 26.6667 12.1087 26.6667 11.6667C26.6667 11.2246 26.4911 10.8007 26.1785 10.4882C25.866 10.1756 25.442 10 25 10Z" fill="white"/>
<path d="M22.1662 6.87563L19.9884 5.42438C19.6271 4.28538 18.9125 3.29102 17.9482 2.58542C16.9839 1.87982 15.8199 1.49964 14.625 1.5H14.5978C11.5115 1.515 8.99996 4.07531 8.99996 7.20844V9.05906L1.09027 18.5513L1.0809 18.5625C0.90437 18.783 0.79368 19.0488 0.761562 19.3294C0.729444 19.61 0.777203 19.894 0.899344 20.1487C1.02149 20.4033 1.21305 20.6183 1.45198 20.769C1.69092 20.9196 1.96752 20.9996 2.24996 21H10.5C13.085 20.9973 15.5633 19.9692 17.3912 18.1413C19.2191 16.3134 20.2472 13.835 20.25 11.25V9.40125L22.1662 8.12438C22.2691 8.05591 22.3535 7.96309 22.4118 7.85416C22.4702 7.74523 22.5007 7.62357 22.5007 7.5C22.5007 7.37643 22.4702 7.25477 22.4118 7.14584C22.3535 7.03691 22.2691 6.94409 22.1662 6.87563ZM11.8265 12.48L6.20152 19.23C6.1392 19.3079 6.06197 19.3725 5.97436 19.4201C5.88675 19.4678 5.79052 19.4975 5.6913 19.5075C5.59207 19.5175 5.49185 19.5076 5.39649 19.4784C5.30113 19.4493 5.21255 19.4013 5.13593 19.3375C5.05931 19.2737 4.99619 19.1952 4.95027 19.1067C4.90435 19.0181 4.87654 18.9213 4.86847 18.8219C4.86041 18.7225 4.87225 18.6225 4.90331 18.5277C4.93436 18.433 4.98401 18.3454 5.04933 18.27L10.6743 11.52C10.7367 11.4421 10.8139 11.3775 10.9015 11.3299C10.9891 11.2822 11.0853 11.2525 11.1846 11.2425C11.2838 11.2325 11.384 11.2424 11.4794 11.2716C11.5747 11.3007 11.6633 11.3487 11.7399 11.4125C11.8165 11.4763 11.8797 11.5548 11.9256 11.6433C11.9715 11.7319 11.9993 11.8287 12.0074 11.9281C12.0154 12.0275 12.0036 12.1275 11.9725 12.2223C11.9415 12.317 11.8918 12.4046 11.8265 12.48ZM15.375 7.5C15.1525 7.5 14.9349 7.43402 14.7499 7.3104C14.5649 7.18679 14.4207 7.01109 14.3356 6.80552C14.2504 6.59995 14.2282 6.37375 14.2716 6.15552C14.315 5.93729 14.4221 5.73684 14.5795 5.5795C14.7368 5.42217 14.9373 5.31503 15.1555 5.27162C15.3737 5.22821 15.5999 5.25049 15.8055 5.33564C16.011 5.42078 16.1867 5.56498 16.3104 5.74998C16.434 5.93499 16.5 6.1525 16.5 6.375C16.5 6.67337 16.3814 6.95952 16.1705 7.1705C15.9595 7.38147 15.6733 7.5 15.375 7.5Z" fill="white"/>
</g>
<defs>
<clipPath id="clip0_259_4734">
<rect width="40" height="40" fill="white"/>
</clipPath>
</defs>
</svg>
