<svg width="40" height="40" viewBox="0 0 40 40" fill="none" xmlns="http://www.w3.org/2000/svg">
<path d="M8.33334 36.6667C6.13334 36.6667 5.25001 32.7333 5.06667 31.1667C4.8693 29.6456 5.05256 28.0994 5.6 26.6667C5.84061 25.9849 6.25448 25.3775 6.80092 24.9041C7.34736 24.4307 8.00757 24.1076 8.71667 23.9667C10.6667 23.6333 12.05 24.8 13.8167 25.2C14.1485 25.3065 14.5023 25.3252 14.8436 25.2542C15.1848 25.1833 15.5018 25.0251 15.7637 24.7951C16.0256 24.5651 16.2234 24.2712 16.3378 23.942C16.4523 23.6128 16.4794 23.2595 16.4167 22.9167C15.6833 20.05 10.4667 20 8.33334 20C8.33334 16.9 11.7333 16.5 14.1667 16.7333C15.6102 16.8728 17.0316 17.1862 18.4 17.6667C19.2333 17.95 20.2 18.6667 21.1167 18.6C22.5 18.4833 22.7833 17.05 22.1833 16C20.7333 13.5333 16.6167 13.3333 14.1667 13.3333C14.1667 10 17.05 9.36667 19.8167 9.86667C21.2452 10.1479 22.6373 10.5896 23.9667 11.1833C24.8167 11.55 25.8333 12.25 26.7667 11.9333C29.1667 11.2 26.6667 8.63333 25.6 8.01667C24.8514 7.60356 24.0571 7.27914 23.2333 7.05C22.3333 6.78333 21.2333 6.88333 22.05 5.83333C23.327 4.70669 24.9114 3.98706 26.6 3.76667C29.75 3.03333 34.1 2.9 34.8667 6.86667C35.1221 8.96092 34.6196 11.0774 33.45 12.8333C30.3443 18.1439 26.5004 22.9867 22.0333 27.2167C19.6669 29.6424 17.1025 31.8668 14.3667 33.8667C12.7 35.0667 10.5 36.6667 8.33334 36.6667Z" fill="white"/>
</svg>
