<svg width="40" height="40" viewBox="0 0 40 40" fill="none" xmlns="http://www.w3.org/2000/svg">
<path d="M20 31.6667C21.8334 31.6667 23.3334 33.1667 23.3334 35C23.3334 36.8333 21.8334 38.3333 20 38.3333C18.1667 38.3333 16.6667 36.8333 16.6667 35C16.6667 33.1667 18.1667 31.6667 20 31.6667ZM20 1.66666C21.8334 1.66666 23.3334 3.16666 23.3334 5C23.3334 6.83333 21.8334 8.33333 20 8.33333C18.1667 8.33333 16.6667 6.83333 16.6667 5C16.6667 3.16666 18.1667 1.66666 20 1.66666ZM10 26.6667C11.8334 26.6667 13.3334 28.1667 13.3334 30C13.3334 31.8333 11.8334 33.3333 10 33.3333C8.16669 33.3333 6.66669 31.8333 6.66669 30C6.66669 28.1667 8.16669 26.6667 10 26.6667ZM5.00002 16.6667C6.83335 16.6667 8.33335 18.1667 8.33335 20C8.33335 21.8333 6.83335 23.3333 5.00002 23.3333C3.16669 23.3333 1.66669 21.8333 1.66669 20C1.66669 18.1667 3.16669 16.6667 5.00002 16.6667ZM10 6.66666C11.8334 6.66666 13.3334 8.16666 13.3334 10C13.3334 11.8333 11.8334 13.3333 10 13.3333C8.16669 13.3333 6.66669 11.8333 6.66669 10C6.66669 8.16666 8.16669 6.66666 10 6.66666ZM30 26.6667C31.8334 26.6667 33.3334 28.1667 33.3334 30C33.3334 31.8333 31.8334 33.3333 30 33.3333C28.1667 33.3333 26.6667 31.8333 26.6667 30C26.6667 28.1667 28.1667 26.6667 30 26.6667ZM35 16.6667C36.8334 16.6667 38.3334 18.1667 38.3334 20C38.3334 21.8333 36.8334 23.3333 35 23.3333C33.1667 23.3333 31.6667 21.8333 31.6667 20C31.6667 18.1667 33.1667 16.6667 35 16.6667ZM30 6.66666C31.8334 6.66666 33.3334 8.16666 33.3334 10C33.3334 11.8333 31.8334 13.3333 30 13.3333C28.1667 13.3333 26.6667 11.8333 26.6667 10C26.6667 8.16666 28.1667 6.66666 30 6.66666Z" fill="white"/>
</svg>
