<svg width="40" height="40" viewBox="0 0 40 40" fill="none" xmlns="http://www.w3.org/2000/svg">
<path d="M28.3334 11.6667C25.6187 11.6657 22.9684 12.4934 20.7368 14.0392C18.5052 15.5849 16.7986 17.775 15.845 20.3167L18.9684 21.4883C19.7934 19.2973 21.3607 17.4651 23.3974 16.3107C25.4342 15.1563 27.8113 14.7528 30.1149 15.1705C32.4185 15.5883 34.5027 16.8007 36.0044 18.5968C37.5061 20.3929 38.3302 22.6588 38.3334 25C38.3334 27.6522 37.2798 30.1957 35.4044 32.0711C33.5291 33.9464 30.9855 35 28.3334 35H11.6667C9.30542 35.0015 7.01978 34.1673 5.21451 32.6453C3.40925 31.1232 2.20082 29.0114 1.80321 26.6839C1.4056 24.3563 1.84446 21.9631 3.04209 19.9281C4.23971 17.893 6.11883 16.3475 8.3467 15.565C8.20395 12.686 9.13204 9.85612 10.9521 7.62086C12.7721 5.3856 15.3552 3.90324 18.2033 3.45957C21.0515 3.0159 23.9631 3.64232 26.3768 5.21807C28.7904 6.79383 30.5353 9.20735 31.275 11.9933C30.3096 11.7756 29.323 11.666 28.3334 11.6667Z" fill="white"/>
</svg>
