<svg width="40" height="40" viewBox="0 0 40 40" fill="none" xmlns="http://www.w3.org/2000/svg">
<g clip-path="url(#clip0_259_4745)">
<path d="M12.3833 5.935C17.1733 3.11166 23.4133 2.06166 27.6833 5.345C29.4366 6.695 30.0833 8.69 30.4683 10.295L30.5966 10.8867L30.7133 11.4917C30.89 12.4417 31.07 13.4083 31.4916 14.2583C31.87 15.02 32.3816 15.6967 32.93 16.3517L33.6 17.1283C34.2366 17.8583 34.875 18.5883 35.3783 19.4067C36.0783 20.5467 36.6216 21.8883 36.7116 23.53C36.8 25.1583 36.435 26.9567 35.5233 29.01C32.4366 35.9533 24.1283 37.8133 17.1483 36.1433C10.0616 34.45 3.33331 28.9267 3.33331 20C3.33331 13.9333 7.52498 8.8 12.3833 5.935ZM20 11.6667C17.7898 11.6667 15.6702 12.5446 14.1074 14.1074C12.5446 15.6702 11.6666 17.7899 11.6666 20C11.6666 22.2101 12.5446 24.3297 14.1074 25.8926C15.6702 27.4554 17.7898 28.3333 20 28.3333C22.2101 28.3333 24.3297 27.4554 25.8925 25.8926C27.4553 24.3297 28.3333 22.2101 28.3333 20C28.3333 17.7899 27.4553 15.6702 25.8925 14.1074C24.3297 12.5446 22.2101 11.6667 20 11.6667ZM20 15C21.3261 15 22.5978 15.5268 23.5355 16.4645C24.4732 17.4021 25 18.6739 25 20C25 21.3261 24.4732 22.5978 23.5355 23.5355C22.5978 24.4732 21.3261 25 20 25C18.6739 25 17.4021 24.4732 16.4644 23.5355C15.5268 22.5978 15 21.3261 15 20C15 18.6739 15.5268 17.4021 16.4644 16.4645C17.4021 15.5268 18.6739 15 20 15Z" fill="white"/>
</g>
<defs>
<clipPath id="clip0_259_4745">
<rect width="40" height="40" fill="white"/>
</clipPath>
</defs>
</svg>
