<svg width="40" height="40" viewBox="0 0 40 40" fill="none" xmlns="http://www.w3.org/2000/svg">
<path d="M7.69333 8.33333L10.1933 13.3333H15.1933L12.6933 8.33333H16.0267L18.5267 13.3333H23.5267L21.0267 8.33333H24.36L26.86 13.3333H31.86L29.36 8.33333H32.3083C33.075 8.33333 33.7156 8.59055 34.23 9.10499C34.7444 9.61944 35.0011 10.26 35 11.0267V28.975C35 29.7417 34.7433 30.3822 34.23 30.8967C33.7167 31.4111 33.0761 31.6678 32.3083 31.6667H7.69167C6.925 31.6667 6.285 31.41 5.77167 30.8967C5.25833 30.3833 5.00111 29.7422 5 28.9733V11.0267C5 10.2589 5.25722 9.61833 5.77167 9.10499C6.28611 8.59166 6.92611 8.33444 7.69167 8.33333" fill="white"/>
</svg>
