<svg width="40" height="40" viewBox="0 0 40 40" fill="none" xmlns="http://www.w3.org/2000/svg">
<path d="M36.1834 18.3333L29.5167 6.66667C29.2273 6.16529 28.8123 5.74794 28.3125 5.4557C27.8128 5.16346 27.2456 5.0064 26.6667 5H13.3334C12.7573 5.00928 12.1935 5.16769 11.697 5.45979C11.2004 5.75189 10.788 6.1677 10.5 6.66667L3.83336 18.3333C3.5408 18.8401 3.38678 19.4149 3.38678 20C3.38678 20.5851 3.5408 21.1599 3.83336 21.6667L10.5 33.3333C10.788 33.8323 11.2004 34.2481 11.697 34.5402C12.1935 34.8323 12.7573 34.9907 13.3334 35H26.6667C27.2541 35.0023 27.8316 34.8494 28.3409 34.5567C28.8501 34.2641 29.273 33.842 29.5667 33.3333L36.2334 21.6667C36.5184 21.1556 36.6638 20.5784 36.655 19.9933C36.6462 19.4082 36.4836 18.8357 36.1834 18.3333ZM20 23.3333C19.3408 23.3333 18.6963 23.1378 18.1481 22.7716C17.6 22.4053 17.1727 21.8847 16.9204 21.2756C16.6681 20.6665 16.6021 19.9963 16.7307 19.3497C16.8594 18.7031 17.1768 18.1092 17.643 17.643C18.1092 17.1768 18.7031 16.8593 19.3497 16.7307C19.9963 16.6021 20.6666 16.6681 21.2756 16.9204C21.8847 17.1727 22.4053 17.5999 22.7716 18.1481C23.1379 18.6963 23.3334 19.3407 23.3334 20C23.3334 20.8841 22.9822 21.7319 22.357 22.357C21.7319 22.9821 20.8841 23.3333 20 23.3333Z" fill="white"/>
</svg>
