<svg width="40" height="40" viewBox="0 0 40 40" fill="none" xmlns="http://www.w3.org/2000/svg">
<g clip-path="url(#clip0_259_4718)">
<path d="M24.0002 20.0001C23.9969 20.7888 23.7605 21.5589 23.3208 22.2136C22.881 22.8683 22.2575 23.3784 21.5287 23.6798C20.7999 23.9811 19.9982 24.0603 19.2245 23.9073C18.4508 23.7544 17.7396 23.3761 17.1802 22.8201C16.6242 22.2608 16.2459 21.5495 16.093 20.7758C15.94 20.0021 16.0192 19.2004 16.3206 18.4716C16.6219 17.7428 17.132 17.1193 17.7867 16.6795C18.4414 16.2398 19.2115 16.0034 20.0002 16.0001V9.05518e-05C22.6289 -0.00783113 25.2332 0.504077 27.6633 1.50637C30.0933 2.50865 32.3013 3.98154 34.16 5.84029C36.0188 7.69904 37.4917 9.90697 38.4939 12.3371C39.4962 14.7671 40.0081 17.3714 40.0002 20.0001H24.0002ZM39.8002 22.8201C39.2765 26.498 37.7387 29.9573 35.3592 32.8102C32.9798 35.6632 29.8528 37.7971 26.3287 38.9726C22.8046 40.1481 19.0228 40.3189 15.4071 39.4658C11.7914 38.6127 8.48475 36.7693 5.85787 34.1425C3.23098 31.5156 1.38765 28.2089 0.53452 24.5932C-0.318613 20.9776 -0.147832 17.1957 1.02772 13.6716C2.20327 10.1475 4.33712 7.02051 7.19009 4.64108C10.043 2.26165 13.5024 0.723861 17.1802 0.200091V4.26009C14.304 4.77749 11.6245 6.07273 9.43234 8.00525C7.24019 9.93778 5.61919 12.4338 4.74523 15.2224C3.87128 18.011 3.77775 20.9857 4.4748 23.8237C5.17186 26.6617 6.63286 29.2546 8.69928 31.321C10.7657 33.3875 13.3586 34.8485 16.1966 35.5455C19.0346 36.2426 22.0093 36.149 24.7979 35.2751C27.5865 34.4011 30.0825 32.7801 32.0151 30.588C33.9476 28.3958 35.2428 25.7163 35.7602 22.8401H39.8002V22.8201ZM31.6602 22.8201C31.156 24.8891 30.1103 26.7867 28.6303 28.3181C27.1504 29.8494 25.2896 30.9593 23.239 31.5339C21.1883 32.1085 19.0217 32.1269 16.9616 31.5875C14.9015 31.048 13.022 29.97 11.5161 28.4642C10.0103 26.9583 8.9323 25.0788 8.39283 23.0187C7.85336 20.9586 7.87186 18.792 8.44642 16.7413C9.02097 14.6907 10.1309 12.8299 11.6622 11.35C13.1936 9.87006 15.0912 8.82431 17.1602 8.32009V12.5201C15.9083 12.9917 14.7951 13.7704 13.9228 14.7847C13.0505 15.799 12.4473 17.0163 12.1685 18.3247C11.8897 19.6331 11.9443 20.9906 12.3273 22.2724C12.7102 23.5542 13.4093 24.7191 14.3602 25.6601C15.3066 26.6005 16.4731 27.2893 17.7535 27.6638C19.034 28.0383 20.3878 28.0866 21.6918 27.8044C22.9957 27.5221 24.2083 26.9183 25.2193 26.0477C26.2303 25.1772 27.0075 24.0677 27.4802 22.8201H31.6802H31.6602Z" fill="white"/>
</g>
<defs>
<clipPath id="clip0_259_4718">
<rect width="40" height="40" fill="white"/>
</clipPath>
</defs>
</svg>
