<svg width="40" height="40" viewBox="0 0 40 40" fill="none" xmlns="http://www.w3.org/2000/svg">
<path d="M16.25 36.6667C13.4444 36.6667 10.9794 35.7294 8.855 33.855C6.73056 31.9806 5.44556 29.6539 5 26.875C4.94445 26.375 5.08334 25.9372 5.41667 25.5617C5.75 25.1861 6.16667 24.9989 6.66667 25H24.2083L26.0417 7.75C26.1806 6.5 26.7156 5.45111 27.6467 4.60333C28.5778 3.75556 29.6956 3.33222 31 3.33333C32.3889 3.33333 33.5694 3.81945 34.5417 4.79167C35.5139 5.76389 36 6.94445 36 8.33333V8.75C36 9.22222 35.84 9.61833 35.52 9.93833C35.2 10.2583 34.8044 10.4178 34.3333 10.4167C33.8622 10.4156 33.4667 10.2556 33.1467 9.93667C32.8267 9.61778 32.6667 9.22222 32.6667 8.75V8.33333C32.6667 7.86111 32.5067 7.46556 32.1867 7.14667C31.8667 6.82778 31.4711 6.66778 31 6.66667C30.5556 6.66667 30.1806 6.81278 29.875 7.105C29.5694 7.39722 29.3889 7.75111 29.3333 8.16667L27.4167 26.2917C27.1111 29.2361 25.9028 31.7017 23.7917 33.6883C21.6806 35.675 19.1667 36.6678 16.25 36.6667ZM10.2917 22.5C9.81945 22.5 9.48611 22.3678 9.29167 22.1033C9.09722 21.8389 9.02778 21.485 9.08334 21.0417C9.11111 20.7917 9.13222 20.59 9.14667 20.4367C9.16111 20.2833 9.16778 20.1378 9.16667 20C9.16667 19.1667 8.88889 18.1111 8.33334 16.8333C7.77778 15.5556 7.5 14.5972 7.5 13.9583C7.5 13.7083 7.51389 13.4517 7.54167 13.1883C7.56945 12.925 7.65278 12.6678 7.79167 12.4167C7.90278 12.1944 8.05556 12.0139 8.25 11.875C8.44445 11.7361 8.65278 11.6667 8.875 11.6667C9.31945 11.6667 9.66 11.7983 9.89667 12.0617C10.1333 12.325 10.1956 12.6794 10.0833 13.125C10.0278 13.375 10 13.6528 10 13.9583C10 14.5972 10.2778 15.5556 10.8333 16.8333C11.3889 18.1111 11.6667 19.1667 11.6667 20C11.6667 20.4167 11.6389 20.7639 11.5833 21.0417C11.5278 21.3194 11.4583 21.5556 11.375 21.75C11.2639 21.9722 11.1111 22.1528 10.9167 22.2917C10.7222 22.4306 10.5139 22.5 10.2917 22.5ZM21.125 22.5C20.6528 22.5 20.3194 22.3678 20.125 22.1033C19.9306 21.8389 19.8611 21.485 19.9167 21.0417C19.9444 20.7917 19.9656 20.59 19.98 20.4367C19.9944 20.2833 20.0011 20.1378 20 20C20 19.1667 19.7222 18.1111 19.1667 16.8333C18.6111 15.5556 18.3333 14.5972 18.3333 13.9583C18.3333 13.7083 18.3472 13.4517 18.375 13.1883C18.4028 12.925 18.4861 12.6678 18.625 12.4167C18.7361 12.1944 18.8889 12.0139 19.0833 11.875C19.2778 11.7361 19.4861 11.6667 19.7083 11.6667C20.1528 11.6667 20.4933 11.7983 20.73 12.0617C20.9667 12.325 21.0289 12.6794 20.9167 13.125C20.8611 13.375 20.8333 13.6528 20.8333 13.9583C20.8333 14.5972 21.1111 15.5556 21.6667 16.8333C22.2222 18.1111 22.5 19.1667 22.5 20C22.5 20.4167 22.4722 20.7639 22.4167 21.0417C22.3611 21.3194 22.2917 21.5556 22.2083 21.75C22.0972 21.9722 21.9444 22.1528 21.75 22.2917C21.5556 22.4306 21.3472 22.5 21.125 22.5ZM15.7083 22.5C15.2361 22.5 14.9028 22.3678 14.7083 22.1033C14.5139 21.8389 14.4444 21.485 14.5 21.0417C14.5278 20.7917 14.5489 20.59 14.5633 20.4367C14.5778 20.2833 14.5844 20.1378 14.5833 20C14.5833 19.1667 14.3056 18.1111 13.75 16.8333C13.1944 15.5556 12.9167 14.5972 12.9167 13.9583C12.9167 13.7083 12.9306 13.4517 12.9583 13.1883C12.9861 12.925 13.0694 12.6678 13.2083 12.4167C13.3194 12.1944 13.4722 12.0139 13.6667 11.875C13.8611 11.7361 14.0694 11.6667 14.2917 11.6667C14.7361 11.6667 15.0767 11.7983 15.3133 12.0617C15.55 12.325 15.6122 12.6794 15.5 13.125C15.4444 13.375 15.4167 13.6528 15.4167 13.9583C15.4167 14.5972 15.6944 15.5556 16.25 16.8333C16.8056 18.1111 17.0833 19.1667 17.0833 20C17.0833 20.4167 17.0556 20.7639 17 21.0417C16.9444 21.3194 16.875 21.5556 16.7917 21.75C16.6806 21.9722 16.5278 22.1528 16.3333 22.2917C16.1389 22.4306 15.9306 22.5 15.7083 22.5Z" fill="white"/>
</svg>
