<svg width="40" height="40" viewBox="0 0 40 40" fill="none" xmlns="http://www.w3.org/2000/svg">
<path d="M5.00002 35C4.7778 35 4.5628 34.9511 4.35502 34.8533C4.14724 34.7556 3.97335 34.6378 3.83335 34.5C3.50002 34.1944 3.33335 33.8128 3.33335 33.355C3.33335 32.8972 3.48613 32.5011 3.79169 32.1667C4.31946 31.6111 4.95169 31.2778 5.68835 31.1667C6.42502 31.0556 7.1678 31.0694 7.91669 31.2083C8.13891 31.2639 8.34724 31.3194 8.54169 31.375C8.73613 31.4306 8.9028 31.3889 9.04169 31.25C9.20835 31.0833 9.27113 30.875 9.23002 30.625C9.18891 30.375 9.14002 30.1389 9.08335 29.9167C8.97224 29.1667 8.95835 28.4233 9.04169 27.6867C9.12502 26.95 9.43058 26.3044 9.95835 25.75C10.4861 25.1956 11.1178 24.8622 11.8534 24.75C12.5889 24.6378 13.3322 24.6517 14.0834 24.7917C14.3056 24.8472 14.5211 24.9028 14.73 24.9583C14.9389 25.0139 15.1122 24.9722 15.25 24.8333C15.4167 24.6667 15.4722 24.4583 15.4167 24.2083C15.3611 23.9583 15.3056 23.7222 15.25 23.5C15.1389 22.75 15.125 22.0072 15.2084 21.2717C15.2917 20.5361 15.5972 19.89 16.125 19.3333C16.6528 18.7767 17.2845 18.4433 18.02 18.3333C18.7556 18.2233 19.4989 18.2372 20.25 18.375C20.4722 18.4306 20.6872 18.4861 20.895 18.5417C21.1028 18.5972 21.2767 18.5556 21.4167 18.4167C21.5834 18.25 21.6389 18.0417 21.5834 17.7917C21.5278 17.5417 21.4722 17.3056 21.4167 17.0833C21.3056 16.3333 21.2984 15.5906 21.395 14.855C21.4917 14.1194 21.8045 13.4733 22.3334 12.9167C22.8622 12.36 23.4945 12.0267 24.23 11.9167C24.9656 11.8067 25.7084 11.8206 26.4584 11.9583C26.6806 12.0139 26.8961 12.0694 27.105 12.125C27.3139 12.1806 27.4872 12.1389 27.625 12C27.7917 11.8333 27.8472 11.625 27.7917 11.375C27.7361 11.125 27.6806 10.8889 27.625 10.6667C27.5139 9.91666 27.5072 9.17333 27.605 8.43666C27.7028 7.7 28.015 7.05444 28.5417 6.5C29.0684 5.94555 29.7006 5.61222 30.4384 5.5C31.1761 5.38778 31.9189 5.40166 32.6667 5.54166C32.8889 5.59722 33.1039 5.64611 33.3117 5.68833C33.5195 5.73055 33.6934 5.68166 33.8334 5.54166C34.1389 5.20833 34.5211 5.04166 34.98 5.04166C35.4389 5.04166 35.8345 5.19444 36.1667 5.5C36.4989 5.80555 36.6656 6.18778 36.6667 6.64666C36.6678 7.10555 36.515 7.50111 36.2084 7.83333C35.6806 8.38889 35.0489 8.72944 34.3134 8.855C33.5778 8.98055 32.8345 8.97333 32.0834 8.83333C31.8611 8.77778 31.6461 8.72222 31.4384 8.66666C31.2306 8.61111 31.0567 8.65278 30.9167 8.79166C30.75 8.95833 30.6945 9.16666 30.75 9.41666C30.8056 9.66666 30.8611 9.90277 30.9167 10.125C31.0278 10.875 31.035 11.6183 30.9384 12.355C30.8417 13.0917 30.5289 13.7372 30 14.2917C29.4711 14.8461 28.8395 15.1794 28.105 15.2917C27.3706 15.4039 26.6272 15.39 25.875 15.25C25.6528 15.1944 25.4445 15.1389 25.25 15.0833C25.0556 15.0278 24.8889 15.0694 24.75 15.2083C24.5834 15.375 24.5211 15.5833 24.5634 15.8333C24.6056 16.0833 24.6539 16.3194 24.7084 16.5417C24.8195 17.2917 24.8334 18.035 24.75 18.7717C24.6667 19.5083 24.3611 20.1539 23.8334 20.7083C23.3056 21.2361 22.6739 21.5628 21.9384 21.6883C21.2028 21.8139 20.4595 21.8067 19.7084 21.6667C19.4861 21.6111 19.2778 21.5622 19.0834 21.52C18.8889 21.4778 18.7222 21.5267 18.5834 21.6667C18.4167 21.8333 18.3545 22.035 18.3967 22.2717C18.4389 22.5083 18.4872 22.7372 18.5417 22.9583C18.6528 23.7083 18.6667 24.4517 18.5834 25.1883C18.5 25.925 18.1945 26.5706 17.6667 27.125C17.1389 27.6794 16.5 28.0128 15.75 28.125C15 28.2372 14.25 28.2233 13.5 28.0833C13.2778 28.0278 13.0695 27.9794 12.875 27.9383C12.6806 27.8972 12.5139 27.9456 12.375 28.0833C12.2084 28.25 12.1528 28.4517 12.2084 28.6883C12.2639 28.925 12.3195 29.1539 12.375 29.375C12.4861 30.125 12.4934 30.8683 12.3967 31.605C12.3 32.3417 11.9872 32.9872 11.4584 33.5417C10.9295 34.0961 10.2978 34.4294 9.56335 34.5417C8.82891 34.6539 8.08558 34.64 7.33335 34.5C7.11113 34.4444 6.9028 34.3961 6.70835 34.355C6.51391 34.3139 6.34724 34.3622 6.20835 34.5C6.04169 34.6667 5.85391 34.7917 5.64502 34.875C5.43613 34.9583 5.22113 35 5.00002 35ZM10 18.3333C7.69446 18.3333 5.72947 17.5211 4.10502 15.8967C2.48058 14.2722 1.6678 12.3067 1.66669 10C1.66669 7.66666 2.47946 5.69444 4.10502 4.08333C5.73058 2.47222 7.69558 1.66666 10 1.66666C12.3334 1.66666 14.3056 2.47222 15.9167 4.08333C17.5278 5.69444 18.3334 7.66666 18.3334 10C18.3334 12.3056 17.5278 14.2711 15.9167 15.8967C14.3056 17.5222 12.3334 18.3344 10 18.3333ZM26.6667 38.3333C25.75 38.3333 24.9656 38.0072 24.3134 37.355C23.6611 36.7028 23.3345 35.9178 23.3334 35V26.6667C23.3334 25.75 23.66 24.9656 24.3134 24.3133C24.9667 23.6611 25.7511 23.3344 26.6667 23.3333H35C35.9167 23.3333 36.7017 23.66 37.355 24.3133C38.0084 24.9667 38.3345 25.7511 38.3334 26.6667V35C38.3334 35.9167 38.0072 36.7017 37.355 37.355C36.7028 38.0083 35.9178 38.3344 35 38.3333H26.6667Z" fill="white"/>
</svg>
