<svg width="40" height="40" viewBox="0 0 40 40" fill="none" xmlns="http://www.w3.org/2000/svg">
<path d="M3.33335 18.3333L6.75002 18.5C6.95194 16.6757 7.5302 14.9132 8.44821 13.3239C9.36623 11.7346 10.604 10.3531 12.0834 9.26666L10.2167 6.39999C9.76669 5.59999 10 4.58333 10.8334 4.11666C11.6667 3.66666 12.65 3.93333 13.1167 4.73333L14.6667 7.76666C16.3514 7.04215 18.1661 6.6685 20 6.6685C21.8339 6.6685 23.6486 7.04215 25.3334 7.76666L26.8834 4.73333C27.35 3.93333 28.3334 3.66666 29.1667 4.11666C30 4.58333 30.2334 5.59999 29.7834 6.39999L27.9167 9.26666C29.396 10.3531 30.6338 11.7346 31.5518 13.3239C32.4698 14.9132 33.0481 16.6757 33.25 18.5L36.6667 18.3333C37.1087 18.3333 37.5326 18.5089 37.8452 18.8215C38.1578 19.134 38.3334 19.558 38.3334 20C38.3334 20.442 38.1578 20.8659 37.8452 21.1785C37.5326 21.4911 37.1087 21.6667 36.6667 21.6667L33.25 21.5C33.0481 23.3242 32.4698 25.0868 31.5518 26.6761C30.6338 28.2654 29.396 29.6469 27.9167 30.7333L29.7834 33.6C30.2334 34.4 30 35.4167 29.1667 35.8833C28.3334 36.3333 27.35 36.0667 26.8834 35.2667L25.3334 32.2333C23.6486 32.9578 21.8339 33.3315 20 33.3315C18.1661 33.3315 16.3514 32.9578 14.6667 32.2333L13.1167 35.2667C12.65 36.0667 11.6667 36.3333 10.8334 35.8833C10 35.4167 9.76669 34.4 10.2167 33.6L12.0834 30.7333C10.604 29.6469 9.36623 28.2654 8.44821 26.6761C7.5302 25.0868 6.95194 23.3242 6.75002 21.5L3.33335 21.6667C2.89133 21.6667 2.4674 21.4911 2.15484 21.1785C1.84228 20.8659 1.66669 20.442 1.66669 20C1.66669 19.558 1.84228 19.134 2.15484 18.8215C2.4674 18.5089 2.89133 18.3333 3.33335 18.3333ZM15.1167 18.9167C15.3334 17.9 15.8834 17 16.6667 16.3167L13.9 12.0833C11.8099 13.689 10.4383 16.055 10.0834 18.6667L15.1167 18.9167ZM20 15C20.5334 15 21.0334 15.0833 21.5 15.2333L23.8 10.75C22.6334 10.2667 21.35 9.99999 20 9.99999C18.65 9.99999 17.3667 10.2667 16.2 10.75L18.5 15.2333C18.9667 15.0833 19.4667 15 20 15ZM24.8834 18.9167L29.9167 18.6667C29.5618 16.055 28.1901 13.689 26.1 12.0833L23.3334 16.3167C24.1167 17 24.6667 17.9 24.8834 18.9167ZM24.8834 21.0833C24.6667 22.1 24.1167 23 23.3334 23.6833L26.1 27.9167C28.1901 26.3109 29.5618 23.945 29.9167 21.3333L24.8834 21.0833ZM20 25C19.4667 25 18.9667 24.9167 18.4834 24.7667L16.2 29.25C17.3667 29.7333 18.65 30 20 30C21.35 30 22.6334 29.7333 23.8 29.25L21.5167 24.7667C21.0334 24.9167 20.5334 25 20 25ZM15.1167 21.0833L10.0834 21.3333C10.45 24 11.85 26.35 13.9 27.9167L16.6667 23.6833C15.8834 23 15.3334 22.1 15.1167 21.0833Z" fill="white"/>
</svg>
