<svg width="40" height="40" viewBox="0 0 40 40" fill="none" xmlns="http://www.w3.org/2000/svg">
<path d="M3.33331 21.6667C4.21737 21.6667 5.06521 21.3155 5.69034 20.6904C6.31546 20.0652 6.66665 19.2174 6.66665 18.3333V11.6667C6.66665 10.7826 7.01784 9.93477 7.64296 9.30964C8.26808 8.68452 9.11592 8.33333 9.99998 8.33333C10.884 8.33333 11.7319 8.68452 12.357 9.30964C12.9821 9.93477 13.3333 10.7826 13.3333 11.6667V33.3333C13.3333 34.2174 13.6845 35.0652 14.3096 35.6904C14.9347 36.3155 15.7826 36.6667 16.6666 36.6667C17.5507 36.6667 18.3985 36.3155 19.0237 35.6904C19.6488 35.0652 20 34.2174 20 33.3333V6.66667C20 5.78261 20.3512 4.93477 20.9763 4.30964C21.6014 3.68452 22.4493 3.33333 23.3333 3.33333C24.2174 3.33333 25.0652 3.68452 25.6903 4.30964C26.3155 4.93477 26.6666 5.78261 26.6666 6.66667V28.3333C26.6666 29.2174 27.0178 30.0652 27.643 30.6904C28.2681 31.3155 29.1159 31.6667 30 31.6667C30.884 31.6667 31.7319 31.3155 32.357 30.6904C32.9821 30.0652 33.3333 29.2174 33.3333 28.3333V21.6667C33.3333 20.7826 33.6845 19.9348 34.3096 19.3096C34.9347 18.6845 35.7826 18.3333 36.6666 18.3333" stroke="white" stroke-width="3.33333" stroke-linecap="round" stroke-linejoin="round"/>
</svg>
