<svg width="40" height="40" viewBox="0 0 40 40" fill="none" xmlns="http://www.w3.org/2000/svg">
<path d="M7.11785 35.8621H32.8821C35.7286 35.8621 37.5028 33.8193 37.5028 31.2414C37.5028 30.4714 37.3021 29.6843 36.8836 28.965L23.9764 6.48143C23.105 4.95786 21.5821 4.13786 20.0086 4.13786C18.4514 4.13786 16.9114 4.95786 16.0236 6.48143L3.11642 28.9814C2.71253 29.6662 2.49874 30.4464 2.49713 31.2414C2.49713 33.82 4.28856 35.8621 7.11785 35.8621ZM20.0086 6.81643C20.6614 6.81643 21.2971 7.10071 21.6657 7.75357L34.5564 30.2536C34.7236 30.5893 34.8071 30.94 34.8071 31.2414C34.8071 32.2793 34.0036 33.2343 32.8486 33.2343H20.0086V6.81643Z" fill="white"/>
</svg>
